<mxfile host="app.diagrams.net" agent="Mozilla/5.0 (Windows NT 10.0; Win64; x64) AppleWebKit/537.36 (KHTML, like Gecko) Chrome/132.0.0.0 Safari/537.36 Edg/132.0.0.0" version="26.0.7">
  <diagram name="Page-1" id="ymC-NcCepes0bSovsw5q">
    <mxGraphModel dx="1587" dy="1196" grid="0" gridSize="10" guides="1" tooltips="1" connect="1" arrows="1" fold="1" page="0" pageScale="1" pageWidth="850" pageHeight="1100" math="0" shadow="0">
      <root>
        <mxCell id="0" />
        <mxCell id="1" parent="0" />
        <mxCell id="RNtEPO0tAfwFkFcnvdP3-1" value="" style="rounded=0;whiteSpace=wrap;html=1;" vertex="1" parent="1">
          <mxGeometry x="-98" y="-143" width="312" height="60" as="geometry" />
        </mxCell>
        <mxCell id="RNtEPO0tAfwFkFcnvdP3-2" value="" style="whiteSpace=wrap;html=1;aspect=fixed;" vertex="1" parent="1">
          <mxGeometry x="-98" y="-143" width="60" height="60" as="geometry" />
        </mxCell>
        <mxCell id="RNtEPO0tAfwFkFcnvdP3-3" value="" style="whiteSpace=wrap;html=1;aspect=fixed;" vertex="1" parent="1">
          <mxGeometry x="-38" y="-143" width="60" height="60" as="geometry" />
        </mxCell>
        <mxCell id="RNtEPO0tAfwFkFcnvdP3-4" value="" style="whiteSpace=wrap;html=1;aspect=fixed;" vertex="1" parent="1">
          <mxGeometry x="22" y="-143" width="60" height="60" as="geometry" />
        </mxCell>
        <mxCell id="RNtEPO0tAfwFkFcnvdP3-5" value="" style="whiteSpace=wrap;html=1;aspect=fixed;" vertex="1" parent="1">
          <mxGeometry x="82" y="-143" width="60" height="60" as="geometry" />
        </mxCell>
        <mxCell id="RNtEPO0tAfwFkFcnvdP3-6" value="" style="endArrow=none;dashed=1;html=1;dashPattern=1 3;strokeWidth=2;rounded=0;fontSize=12;startSize=8;endSize=8;curved=1;" edge="1" parent="1">
          <mxGeometry width="50" height="50" relative="1" as="geometry">
            <mxPoint x="151" y="-113" as="sourcePoint" />
            <mxPoint x="206" y="-112.5" as="targetPoint" />
          </mxGeometry>
        </mxCell>
        <mxCell id="RNtEPO0tAfwFkFcnvdP3-8" value="Priority Levels Array" style="text;html=1;align=center;verticalAlign=middle;whiteSpace=wrap;rounded=0;fontSize=16;fontStyle=1" vertex="1" parent="1">
          <mxGeometry x="-98" y="-178" width="194" height="30" as="geometry" />
        </mxCell>
        <mxCell id="RNtEPO0tAfwFkFcnvdP3-9" value="P0" style="text;html=1;align=center;verticalAlign=middle;whiteSpace=wrap;rounded=0;fontSize=16;fontStyle=1" vertex="1" parent="1">
          <mxGeometry x="-92" y="-143" width="54" height="30" as="geometry" />
        </mxCell>
        <mxCell id="RNtEPO0tAfwFkFcnvdP3-10" value="P1" style="text;html=1;align=center;verticalAlign=middle;whiteSpace=wrap;rounded=0;fontSize=16;fontStyle=1" vertex="1" parent="1">
          <mxGeometry x="-35" y="-143" width="54" height="30" as="geometry" />
        </mxCell>
        <mxCell id="RNtEPO0tAfwFkFcnvdP3-11" value="P2" style="text;html=1;align=center;verticalAlign=middle;whiteSpace=wrap;rounded=0;fontSize=16;fontStyle=1" vertex="1" parent="1">
          <mxGeometry x="25" y="-143" width="54" height="30" as="geometry" />
        </mxCell>
        <mxCell id="RNtEPO0tAfwFkFcnvdP3-12" value="P3" style="text;html=1;align=center;verticalAlign=middle;whiteSpace=wrap;rounded=0;fontSize=16;fontStyle=1" vertex="1" parent="1">
          <mxGeometry x="85" y="-143" width="54" height="30" as="geometry" />
        </mxCell>
        <mxCell id="RNtEPO0tAfwFkFcnvdP3-13" value="" style="endArrow=classic;html=1;rounded=0;fontSize=12;startSize=8;endSize=8;curved=1;entryX=0.5;entryY=0;entryDx=0;entryDy=0;exitX=0.5;exitY=1;exitDx=0;exitDy=0;" edge="1" parent="1" source="RNtEPO0tAfwFkFcnvdP3-15" target="RNtEPO0tAfwFkFcnvdP3-19">
          <mxGeometry width="50" height="50" relative="1" as="geometry">
            <mxPoint x="175" y="225" as="sourcePoint" />
            <mxPoint x="225" y="175" as="targetPoint" />
          </mxGeometry>
        </mxCell>
        <mxCell id="RNtEPO0tAfwFkFcnvdP3-14" value="0" style="rounded=1;whiteSpace=wrap;html=1;" vertex="1" parent="1">
          <mxGeometry x="-92" y="-115" width="47" height="26" as="geometry" />
        </mxCell>
        <mxCell id="RNtEPO0tAfwFkFcnvdP3-15" value="Pointer" style="rounded=1;whiteSpace=wrap;html=1;" vertex="1" parent="1">
          <mxGeometry x="-31.5" y="-115" width="47" height="26" as="geometry" />
        </mxCell>
        <mxCell id="RNtEPO0tAfwFkFcnvdP3-16" value="Pointer" style="rounded=1;whiteSpace=wrap;html=1;" vertex="1" parent="1">
          <mxGeometry x="28.5" y="-115" width="47" height="26" as="geometry" />
        </mxCell>
        <mxCell id="RNtEPO0tAfwFkFcnvdP3-17" value="Pointer" style="rounded=1;whiteSpace=wrap;html=1;" vertex="1" parent="1">
          <mxGeometry x="88.5" y="-115" width="47" height="26" as="geometry" />
        </mxCell>
        <mxCell id="RNtEPO0tAfwFkFcnvdP3-23" style="edgeStyle=none;curved=1;rounded=0;orthogonalLoop=1;jettySize=auto;html=1;exitX=0.5;exitY=1;exitDx=0;exitDy=0;entryX=0;entryY=0.5;entryDx=0;entryDy=0;fontSize=12;startSize=8;endSize=8;" edge="1" parent="1" source="RNtEPO0tAfwFkFcnvdP3-19" target="RNtEPO0tAfwFkFcnvdP3-20">
          <mxGeometry relative="1" as="geometry">
            <Array as="points">
              <mxPoint x="-63" y="99" />
            </Array>
          </mxGeometry>
        </mxCell>
        <mxCell id="RNtEPO0tAfwFkFcnvdP3-19" value="TCB" style="whiteSpace=wrap;html=1;aspect=fixed;fontStyle=1" vertex="1" parent="1">
          <mxGeometry x="-76" y="-12" width="41" height="41" as="geometry" />
        </mxCell>
        <mxCell id="RNtEPO0tAfwFkFcnvdP3-24" style="edgeStyle=none;curved=1;rounded=0;orthogonalLoop=1;jettySize=auto;html=1;exitX=1;exitY=0.5;exitDx=0;exitDy=0;entryX=0.5;entryY=1;entryDx=0;entryDy=0;fontSize=12;startSize=8;endSize=8;" edge="1" parent="1" source="RNtEPO0tAfwFkFcnvdP3-20" target="RNtEPO0tAfwFkFcnvdP3-21">
          <mxGeometry relative="1" as="geometry">
            <Array as="points">
              <mxPoint x="107" y="103" />
            </Array>
          </mxGeometry>
        </mxCell>
        <mxCell id="RNtEPO0tAfwFkFcnvdP3-20" value="TCB" style="whiteSpace=wrap;html=1;aspect=fixed;fontStyle=1" vertex="1" parent="1">
          <mxGeometry y="106" width="41" height="41" as="geometry" />
        </mxCell>
        <mxCell id="RNtEPO0tAfwFkFcnvdP3-25" style="edgeStyle=none;curved=1;rounded=0;orthogonalLoop=1;jettySize=auto;html=1;exitX=0.5;exitY=0;exitDx=0;exitDy=0;entryX=1;entryY=0.5;entryDx=0;entryDy=0;fontSize=12;startSize=8;endSize=8;" edge="1" parent="1" source="RNtEPO0tAfwFkFcnvdP3-21" target="RNtEPO0tAfwFkFcnvdP3-19">
          <mxGeometry relative="1" as="geometry">
            <Array as="points">
              <mxPoint x="34" y="-53" />
            </Array>
          </mxGeometry>
        </mxCell>
        <mxCell id="RNtEPO0tAfwFkFcnvdP3-21" value="TCB" style="whiteSpace=wrap;html=1;aspect=fixed;fontStyle=1" vertex="1" parent="1">
          <mxGeometry x="91.5" y="-12" width="41" height="41" as="geometry" />
        </mxCell>
        <mxCell id="RNtEPO0tAfwFkFcnvdP3-27" value="" style="shape=flexArrow;endArrow=classic;html=1;rounded=0;fontSize=12;startSize=8;endSize=8;curved=1;" edge="1" parent="1">
          <mxGeometry width="50" height="50" relative="1" as="geometry">
            <mxPoint x="-98" y="-57" as="sourcePoint" />
            <mxPoint x="160" y="-57" as="targetPoint" />
          </mxGeometry>
        </mxCell>
        <mxCell id="RNtEPO0tAfwFkFcnvdP3-28" value="Round Robin" style="text;html=1;align=center;verticalAlign=middle;whiteSpace=wrap;rounded=0;fontSize=16;fontStyle=1" vertex="1" parent="1">
          <mxGeometry x="-35" y="29" width="119" height="30" as="geometry" />
        </mxCell>
      </root>
    </mxGraphModel>
  </diagram>
</mxfile>
